# xmcd
#
# Track frame offsets:
#	180
#	25720
#	46935
#	60040
#	84420
#	105885
#	128105
#	151155
#	171830
#	192145
#
# Disc length: 2954 seconds
#
# Revision: 1
# Processed by: cddbd v1.4PL0 Copyright (c) Steve Scherf et al.
# Submitted via: CDmax 2.0
#
DISCID=640b880a
DTITLE=Bobby Webb - The Smooth Blues Band
DYEAR=1993
DGENRE=Blues
TTITLE0=Honky Tonk
TTITLE1=The things I used to do
TTITLE2=T-Bone Shuffle
TTITLE3=Drifting Blues
TTITLE4=The thrill is gone
TTITLE5=Drivin' Wheel
TTITLE6=I'll play the blues for you
TTITLE7=Sweet home Chicago
TTITLE8=Good Morning Heartache
TTITLE9=Mr. Magic
EXTD=
EXTT0=
EXTT1=
EXTT2=
EXTT3=
EXTT4=
EXTT5=
EXTT6=
EXTT7=
EXTT8=
EXTT9=
PLAYORDER=
